<?xml version="1.0" encoding="UTF-8" standalone="no"?><svg xmlns="http://www.w3.org/2000/svg" xmlns:xlink="http://www.w3.org/1999/xlink" contentStyleType="text/css" height="1367px" preserveAspectRatio="none" style="width:820px;height:1367px;background:#FFFFFF;" version="1.1" viewBox="0 0 820 1367" width="820px" zoomAndPan="magnify"><defs/><g><!--MD5=[722f3e289db11643fcc624ba87972f45]
cluster console-mpds--><g id="cluster_console-mpds"><rect fill="#CCCCCC" height="148" rx="2.5" ry="2.5" style="stroke:#181818;stroke-width:1.0;" width="200" x="7" y="129.5"/><text fill="#000000" font-family="sans-serif" font-size="14" font-weight="bold" lengthAdjust="spacing" textLength="104" x="55" y="145.0352">console-mpds</text></g><!--MD5=[15636c1ca4a123c16a2a1a8e90aca7a9]
cluster Model--><g id="cluster_Model"><rect fill="#AACCAA" height="1058" rx="2.5" ry="2.5" style="stroke:#181818;stroke-width:1.0;" width="268" x="546" y="303"/><text fill="#000000" font-family="sans-serif" font-size="14" font-weight="bold" lengthAdjust="spacing" textLength="44" x="658" y="318.5352">Model</text></g><!--MD5=[999f80192410ad58725ac6d158b21eb2]
cluster Views--><g id="cluster_Views"><rect fill="#CCAAAA" height="619" rx="2.5" ry="2.5" style="stroke:#181818;stroke-width:1.0;" width="291" x="231" y="113"/><text fill="#000000" font-family="sans-serif" font-size="14" font-weight="bold" lengthAdjust="spacing" textLength="43" x="355" y="128.5352">Views</text></g><!--MD5=[20a9be3e631c4638d69d0cb97aba38ce]
class console--><g id="elem_console"><rect codeLine="3" fill="#F1F1F1" height="97.4648" id="console" rx="2.5" ry="2.5" style="stroke:#181818;stroke-width:0.5;" width="168" x="23" y="164.5"/><ellipse cx="76.25" cy="180.5" fill="#ADD1B2" rx="11" ry="11" style="stroke:#181818;stroke-width:1.0;"/><path d="M78.7231,186.6431 Q78.1421,186.9419 77.5029,187.0913 Q76.8638,187.2407 76.1582,187.2407 Q73.6514,187.2407 72.3315,185.5889 Q71.0117,183.937 71.0117,180.8159 Q71.0117,177.6865 72.3315,176.0347 Q73.6514,174.3828 76.1582,174.3828 Q76.8638,174.3828 77.5112,174.5322 Q78.1587,174.6816 78.7231,174.9805 L78.7231,177.7031 Q78.0923,177.1221 77.4988,176.8523 Q76.9053,176.5825 76.2744,176.5825 Q74.9297,176.5825 74.2449,177.6492 Q73.5601,178.7158 73.5601,180.8159 Q73.5601,182.9077 74.2449,183.9744 Q74.9297,185.041 76.2744,185.041 Q76.9053,185.041 77.4988,184.7712 Q78.0923,184.5015 78.7231,183.9204 Z " fill="#000000"/><text fill="#000000" font-family="sans-serif" font-size="14" lengthAdjust="spacing" textLength="53" x="96.75" y="185.791">console</text><line style="stroke:#181818;stroke-width:0.5;" x1="24" x2="190" y1="196.5" y2="196.5"/><line style="stroke:#181818;stroke-width:0.5;" x1="24" x2="190" y1="204.5" y2="204.5"/><text fill="#000000" font-family="sans-serif" font-size="14" lengthAdjust="spacing" textLength="84" x="29" y="222.0352">writeln(text)</text><text fill="#000000" font-family="sans-serif" font-size="14" lengthAdjust="spacing" textLength="142" x="29" y="238.5234">readString(question)</text><text fill="#000000" font-family="sans-serif" font-size="14" lengthAdjust="spacing" textLength="156" x="29" y="255.0117">readNumber(question)</text></g><!--MD5=[8c7d7abc12e214c3cc12c9ab70edee11]
class Coordinate--><g id="elem_Coordinate"><rect codeLine="11" fill="#F1F1F1" height="113.9531" id="Coordinate" rx="2.5" ry="2.5" style="stroke:#181818;stroke-width:0.5;" width="207" x="562.5" y="1231"/><ellipse cx="623.25" cy="1247" fill="#ADD1B2" rx="11" ry="11" style="stroke:#181818;stroke-width:1.0;"/><path d="M625.7231,1253.1431 Q625.1421,1253.4419 624.5029,1253.5913 Q623.8638,1253.7407 623.1582,1253.7407 Q620.6514,1253.7407 619.3315,1252.0889 Q618.0117,1250.437 618.0117,1247.3159 Q618.0117,1244.1865 619.3315,1242.5347 Q620.6514,1240.8828 623.1582,1240.8828 Q623.8638,1240.8828 624.5112,1241.0322 Q625.1587,1241.1816 625.7231,1241.4805 L625.7231,1244.2031 Q625.0923,1243.6221 624.4988,1243.3523 Q623.9053,1243.0825 623.2744,1243.0825 Q621.9297,1243.0825 621.2449,1244.1492 Q620.5601,1245.2158 620.5601,1247.3159 Q620.5601,1249.4077 621.2449,1250.4744 Q621.9297,1251.541 623.2744,1251.541 Q623.9053,1251.541 624.4988,1251.2712 Q625.0923,1251.0015 625.7231,1250.4204 Z " fill="#000000"/><text fill="#000000" font-family="sans-serif" font-size="14" lengthAdjust="spacing" textLength="77" x="643.75" y="1252.291">Coordinate</text><line style="stroke:#181818;stroke-width:0.5;" x1="563.5" x2="768.5" y1="1263" y2="1263"/><text fill="#000000" font-family="sans-serif" font-size="14" lengthAdjust="spacing" textLength="26" x="568.5" y="1280.5352">row</text><text fill="#000000" font-family="sans-serif" font-size="14" lengthAdjust="spacing" textLength="51" x="568.5" y="1297.0234">column</text><line style="stroke:#181818;stroke-width:0.5;" x1="563.5" x2="768.5" y1="1303.9766" y2="1303.9766"/><text fill="#000000" font-family="sans-serif" font-size="14" lengthAdjust="spacing" textLength="195" x="568.5" y="1321.5117">shifted(directionCoordinate)</text><text fill="#000000" font-family="sans-serif" font-size="14" lengthAdjust="spacing" textLength="65" x="568.5" y="1338">toString()</text></g><!--MD5=[02f7077ed79257124e28b791f351f1d7]
class Direction--><g id="elem_Direction"><rect codeLine="18" fill="#F1F1F1" height="113.9531" id="Direction" rx="2.5" ry="2.5" style="stroke:#181818;stroke-width:0.5;" width="140" x="658" y="1057"/><ellipse cx="693.7" cy="1073" fill="#ADD1B2" rx="11" ry="11" style="stroke:#181818;stroke-width:1.0;"/><path d="M696.1731,1079.1431 Q695.5921,1079.4419 694.9529,1079.5913 Q694.3138,1079.7407 693.6082,1079.7407 Q691.1014,1079.7407 689.7815,1078.0889 Q688.4617,1076.437 688.4617,1073.3159 Q688.4617,1070.1865 689.7815,1068.5347 Q691.1014,1066.8828 693.6082,1066.8828 Q694.3138,1066.8828 694.9612,1067.0322 Q695.6087,1067.1816 696.1731,1067.4805 L696.1731,1070.2031 Q695.5423,1069.6221 694.9488,1069.3523 Q694.3553,1069.0825 693.7244,1069.0825 Q692.3797,1069.0825 691.6949,1070.1492 Q691.0101,1071.2158 691.0101,1073.3159 Q691.0101,1075.4077 691.6949,1076.4744 Q692.3797,1077.541 693.7244,1077.541 Q694.3553,1077.541 694.9488,1077.2712 Q695.5423,1077.0015 696.1731,1076.4204 Z " fill="#000000"/><text fill="#000000" font-family="sans-serif" font-size="14" lengthAdjust="spacing" textLength="62" x="712.3" y="1078.291">Direction</text><line style="stroke:#181818;stroke-width:0.5;" x1="659" x2="797" y1="1089" y2="1089"/><text fill="#000000" font-family="sans-serif" font-size="14" lengthAdjust="spacing" textLength="38" x="664" y="1106.5352">name</text><text fill="#000000" font-family="sans-serif" font-size="14" lengthAdjust="spacing" textLength="74" x="664" y="1123.0234">coordinate</text><text fill="#000000" font-family="sans-serif" font-size="14" lengthAdjust="spacing" textLength="128" x="664" y="1139.5117">opositeCoordinate</text><line style="stroke:#181818;stroke-width:0.5;" x1="659" x2="797" y1="1146.4648" y2="1146.4648"/><text fill="#000000" font-family="sans-serif" font-size="14" lengthAdjust="spacing" textLength="65" x="664" y="1164">toString()</text></g><!--MD5=[736dfa021baaf4f381c9890dd397bfe9]
class Line--><g id="elem_Line"><rect codeLine="25" fill="#F1F1F1" height="146.9297" id="Line" rx="2.5" ry="2.5" style="stroke:#181818;stroke-width:0.5;" width="144" x="599" y="850"/><ellipse cx="652.75" cy="866" fill="#ADD1B2" rx="11" ry="11" style="stroke:#181818;stroke-width:1.0;"/><path d="M655.2231,872.1431 Q654.6421,872.4419 654.0029,872.5913 Q653.3638,872.7407 652.6582,872.7407 Q650.1514,872.7407 648.8315,871.0889 Q647.5117,869.437 647.5117,866.3159 Q647.5117,863.1865 648.8315,861.5347 Q650.1514,859.8828 652.6582,859.8828 Q653.3638,859.8828 654.0112,860.0322 Q654.6587,860.1816 655.2231,860.4805 L655.2231,863.2031 Q654.5923,862.6221 653.9988,862.3523 Q653.4053,862.0825 652.7744,862.0825 Q651.4297,862.0825 650.7449,863.1492 Q650.0601,864.2158 650.0601,866.3159 Q650.0601,868.4077 650.7449,869.4744 Q651.4297,870.541 652.7744,870.541 Q653.4053,870.541 653.9988,870.2712 Q654.5923,870.0015 655.2231,869.4204 Z " fill="#000000"/><text fill="#000000" font-family="sans-serif" font-size="14" lengthAdjust="spacing" textLength="28" x="673.25" y="871.291">Line</text><line style="stroke:#181818;stroke-width:0.5;" x1="600" x2="742" y1="882" y2="882"/><text fill="#000000" font-family="sans-serif" font-size="14" lengthAdjust="spacing" textLength="54" x="605" y="899.5352">LENGTH</text><text fill="#000000" font-family="sans-serif" font-size="14" lengthAdjust="spacing" textLength="61" x="605" y="916.0234">direction</text><text fill="#000000" font-family="sans-serif" font-size="14" lengthAdjust="spacing" textLength="81" x="605" y="932.5117">coordinates</text><line style="stroke:#181818;stroke-width:0.5;" x1="600" x2="742" y1="939.4648" y2="939.4648"/><text fill="#000000" font-family="sans-serif" font-size="14" lengthAdjust="spacing" textLength="65" x="605" y="957">toString()</text><text fill="#000000" font-family="sans-serif" font-size="14" lengthAdjust="spacing" textLength="132" x="605" y="973.4883">oppositeDirection()</text><text fill="#000000" font-family="sans-serif" font-size="14" lengthAdjust="spacing" textLength="101" x="605" y="989.9766">getVariations()</text></g><!--MD5=[9563755d011c5cec7ec66dc53565a59e]
class Board--><g id="elem_Board"><rect codeLine="34" fill="#F1F1F1" height="229.3711" id="Board" rx="2.5" ry="2.5" style="stroke:#181818;stroke-width:0.5;" width="233" x="562.5" y="561"/><ellipse cx="654.75" cy="577" fill="#ADD1B2" rx="11" ry="11" style="stroke:#181818;stroke-width:1.0;"/><path d="M657.2231,583.1431 Q656.6421,583.4419 656.0029,583.5913 Q655.3638,583.7407 654.6582,583.7407 Q652.1514,583.7407 650.8315,582.0889 Q649.5117,580.437 649.5117,577.3159 Q649.5117,574.1865 650.8315,572.5347 Q652.1514,570.8828 654.6582,570.8828 Q655.3638,570.8828 656.0112,571.0322 Q656.6587,571.1816 657.2231,571.4805 L657.2231,574.2031 Q656.5923,573.6221 655.9988,573.3523 Q655.4053,573.0825 654.7744,573.0825 Q653.4297,573.0825 652.7449,574.1492 Q652.0601,575.2158 652.0601,577.3159 Q652.0601,579.4077 652.7449,580.4744 Q653.4297,581.541 654.7744,581.541 Q655.4053,581.541 655.9988,581.2712 Q656.5923,581.0015 657.2231,580.4204 Z " fill="#000000"/><text fill="#000000" font-family="sans-serif" font-size="14" lengthAdjust="spacing" textLength="40" x="675.25" y="582.291">Board</text><line style="stroke:#181818;stroke-width:0.5;" x1="563.5" x2="794.5" y1="593" y2="593"/><text fill="#000000" font-family="sans-serif" font-size="14" lengthAdjust="spacing" textLength="100" x="568.5" y="610.5352">TOKEN_EMPTY</text><text fill="#000000" font-family="sans-serif" font-size="14" lengthAdjust="spacing" textLength="106" x="568.5" y="627.0234">MAX_COLUMNS</text><text fill="#000000" font-family="sans-serif" font-size="14" lengthAdjust="spacing" textLength="78" x="568.5" y="643.5117">MAX_ROWS</text><text fill="#000000" font-family="sans-serif" font-size="14" lengthAdjust="spacing" textLength="46" x="568.5" y="660">tokens</text><text fill="#000000" font-family="sans-serif" font-size="14" lengthAdjust="spacing" textLength="101" x="568.5" y="676.4883">lastCoordinate</text><line style="stroke:#181818;stroke-width:0.5;" x1="563.5" x2="794.5" y1="683.4414" y2="683.4414"/><text fill="#000000" font-family="sans-serif" font-size="14" lengthAdjust="spacing" textLength="149" x="568.5" y="700.9766">getToken(coordinate)</text><text fill="#000000" font-family="sans-serif" font-size="14" lengthAdjust="spacing" textLength="221" x="568.5" y="717.4648">isLastCoordinateColumnEmpty()</text><text fill="#000000" font-family="sans-serif" font-size="14" lengthAdjust="spacing" textLength="176" x="568.5" y="733.9531">putLastCoordinate(token)</text><text fill="#000000" font-family="sans-serif" font-size="14" lengthAdjust="spacing" textLength="132" x="568.5" y="750.4414">isLastTokenInLine()</text><text fill="#000000" font-family="sans-serif" font-size="14" lengthAdjust="spacing" textLength="87" x="568.5" y="766.9297">isInLine(line)</text><text fill="#000000" font-family="sans-serif" font-size="14" lengthAdjust="spacing" textLength="129" x="568.5" y="783.418">isValid(coordinate)</text></g><!--MD5=[b6dcce5e5ef3c84b0b048d11301373dd]
class Game--><g id="elem_Game"><rect codeLine="48" fill="#F1F1F1" height="163.418" id="Game" rx="2.5" ry="2.5" style="stroke:#181818;stroke-width:0.5;" width="120" x="590" y="338"/><ellipse cx="627.05" cy="354" fill="#ADD1B2" rx="11" ry="11" style="stroke:#181818;stroke-width:1.0;"/><path d="M629.5231,360.1431 Q628.9421,360.4419 628.3029,360.5913 Q627.6638,360.7407 626.9582,360.7407 Q624.4514,360.7407 623.1315,359.0889 Q621.8117,357.437 621.8117,354.3159 Q621.8117,351.1865 623.1315,349.5347 Q624.4514,347.8828 626.9582,347.8828 Q627.6638,347.8828 628.3112,348.0322 Q628.9587,348.1816 629.5231,348.4805 L629.5231,351.2031 Q628.8923,350.6221 628.2988,350.3523 Q627.7053,350.0825 627.0744,350.0825 Q625.7297,350.0825 625.0449,351.1492 Q624.3601,352.2158 624.3601,354.3159 Q624.3601,356.4077 625.0449,357.4744 Q625.7297,358.541 627.0744,358.541 Q627.7053,358.541 628.2988,358.2712 Q628.8923,358.0015 629.5231,357.4204 Z " fill="#000000"/><text fill="#000000" font-family="sans-serif" font-size="14" lengthAdjust="spacing" textLength="39" x="645.95" y="359.291">Game</text><line style="stroke:#181818;stroke-width:0.5;" x1="591" x2="709" y1="370" y2="370"/><text fill="#000000" font-family="sans-serif" font-size="14" lengthAdjust="spacing" textLength="97" x="596" y="387.5352">MAX_PLAYERS</text><text fill="#000000" font-family="sans-serif" font-size="14" lengthAdjust="spacing" textLength="49" x="596" y="404.0234">players</text><text fill="#000000" font-family="sans-serif" font-size="14" lengthAdjust="spacing" textLength="29" x="596" y="420.5117">turn</text><text fill="#000000" font-family="sans-serif" font-size="14" lengthAdjust="spacing" textLength="41" x="596" y="437">board</text><line style="stroke:#181818;stroke-width:0.5;" x1="591" x2="709" y1="443.9531" y2="443.9531"/><text fill="#000000" font-family="sans-serif" font-size="14" lengthAdjust="spacing" textLength="69" x="596" y="461.4883">isWinner()</text><text fill="#000000" font-family="sans-serif" font-size="14" lengthAdjust="spacing" textLength="74" x="596" y="477.9766">nextTurn()</text><text fill="#000000" font-family="sans-serif" font-size="14" lengthAdjust="spacing" textLength="108" x="596" y="494.4648">getTurnToken()</text></g><!--MD5=[a0aa4c6b60a321248fec377f3a83cfca]
class CoordinateView--><g id="elem_CoordinateView"><rect codeLine="60" fill="#F1F1F1" height="80.9766" id="CoordinateView" rx="2.5" ry="2.5" style="stroke:#181818;stroke-width:0.5;" width="141" x="280.5" y="635"/><ellipse cx="295.5" cy="651" fill="#ADD1B2" rx="11" ry="11" style="stroke:#181818;stroke-width:1.0;"/><path d="M297.9731,657.1431 Q297.3921,657.4419 296.7529,657.5913 Q296.1138,657.7407 295.4082,657.7407 Q292.9014,657.7407 291.5815,656.0889 Q290.2617,654.437 290.2617,651.3159 Q290.2617,648.1865 291.5815,646.5347 Q292.9014,644.8828 295.4082,644.8828 Q296.1138,644.8828 296.7612,645.0322 Q297.4087,645.1816 297.9731,645.4805 L297.9731,648.2031 Q297.3423,647.6221 296.7488,647.3523 Q296.1553,647.0825 295.5244,647.0825 Q294.1797,647.0825 293.4949,648.1492 Q292.8101,649.2158 292.8101,651.3159 Q292.8101,653.4077 293.4949,654.4744 Q294.1797,655.541 295.5244,655.541 Q296.1553,655.541 296.7488,655.2712 Q297.3423,655.0015 297.9731,654.4204 Z " fill="#000000"/><text fill="#000000" font-family="sans-serif" font-size="14" lengthAdjust="spacing" textLength="109" x="309.5" y="656.291">CoordinateView</text><line style="stroke:#181818;stroke-width:0.5;" x1="281.5" x2="420.5" y1="667" y2="667"/><polygon fill="none" points="291.5,675.7441,295.5,679.7441,291.5,683.7441,287.5,679.7441" style="stroke:#B38D22;stroke-width:1.0;"/><text fill="#000000" font-family="sans-serif" font-size="14" lengthAdjust="spacing" textLength="74" x="300.5" y="684.5352">coordinate</text><line style="stroke:#181818;stroke-width:0.5;" x1="281.5" x2="420.5" y1="691.4883" y2="691.4883"/><text fill="#000000" font-family="sans-serif" font-size="14" lengthAdjust="spacing" textLength="125" x="286.5" y="709.0234">readColumn(max)</text></g><!--MD5=[9b237e88d697a058bd530d6510c96c00]
class BoardView--><g id="elem_BoardView"><rect codeLine="65" fill="#F1F1F1" height="97.4648" id="BoardView" rx="2.5" ry="2.5" style="stroke:#181818;stroke-width:0.5;" width="140" x="281" y="371"/><ellipse cx="312.2" cy="387" fill="#ADD1B2" rx="11" ry="11" style="stroke:#181818;stroke-width:1.0;"/><path d="M314.6731,393.1431 Q314.0921,393.4419 313.4529,393.5913 Q312.8138,393.7407 312.1082,393.7407 Q309.6014,393.7407 308.2815,392.0889 Q306.9617,390.437 306.9617,387.3159 Q306.9617,384.1865 308.2815,382.5347 Q309.6014,380.8828 312.1082,380.8828 Q312.8138,380.8828 313.4612,381.0322 Q314.1087,381.1816 314.6731,381.4805 L314.6731,384.2031 Q314.0423,383.6221 313.4488,383.3523 Q312.8553,383.0825 312.2244,383.0825 Q310.8797,383.0825 310.1949,384.1492 Q309.5101,385.2158 309.5101,387.3159 Q309.5101,389.4077 310.1949,390.4744 Q310.8797,391.541 312.2244,391.541 Q312.8553,391.541 313.4488,391.2712 Q314.0423,391.0015 314.6731,390.4204 Z " fill="#000000"/><text fill="#000000" font-family="sans-serif" font-size="14" lengthAdjust="spacing" textLength="72" x="329.8" y="392.291">BoardView</text><line style="stroke:#181818;stroke-width:0.5;" x1="282" x2="420" y1="403" y2="403"/><polygon fill="none" points="292,411.7441,296,415.7441,292,419.7441,288,415.7441" style="stroke:#B38D22;stroke-width:1.0;"/><text fill="#000000" font-family="sans-serif" font-size="14" lengthAdjust="spacing" textLength="41" x="301" y="420.5352">board</text><line style="stroke:#181818;stroke-width:0.5;" x1="282" x2="420" y1="427.4883" y2="427.4883"/><text fill="#000000" font-family="sans-serif" font-size="14" lengthAdjust="spacing" textLength="94" x="287" y="445.0234">writeTokens()</text><text fill="#000000" font-family="sans-serif" font-size="14" lengthAdjust="spacing" textLength="128" x="287" y="461.5117">placeToken(token)</text></g><!--MD5=[5d3822d29342fbd355d1b65ea3562ec9]
class GameView--><g id="elem_GameView"><rect codeLine="71" fill="#F1F1F1" height="130.4414" id="GameView" rx="2.5" ry="2.5" style="stroke:#181818;stroke-width:0.5;" width="104" x="247" y="148"/><ellipse cx="262.45" cy="164" fill="#ADD1B2" rx="11" ry="11" style="stroke:#181818;stroke-width:1.0;"/><path d="M264.9231,170.1431 Q264.3421,170.4419 263.7029,170.5913 Q263.0638,170.7407 262.3582,170.7407 Q259.8514,170.7407 258.5315,169.0889 Q257.2117,167.437 257.2117,164.3159 Q257.2117,161.1865 258.5315,159.5347 Q259.8514,157.8828 262.3582,157.8828 Q263.0638,157.8828 263.7112,158.0322 Q264.3587,158.1816 264.9231,158.4805 L264.9231,161.2031 Q264.2923,160.6221 263.6988,160.3523 Q263.1053,160.0825 262.4744,160.0825 Q261.1297,160.0825 260.4449,161.1492 Q259.7601,162.2158 259.7601,164.3159 Q259.7601,166.4077 260.4449,167.4744 Q261.1297,168.541 262.4744,168.541 Q263.1053,168.541 263.6988,168.2712 Q264.2923,168.0015 264.9231,167.4204 Z " fill="#000000"/><text fill="#000000" font-family="sans-serif" font-size="14" lengthAdjust="spacing" textLength="71" x="276.55" y="169.291">GameView</text><line style="stroke:#181818;stroke-width:0.5;" x1="248" x2="350" y1="180" y2="180"/><polygon fill="none" points="258,188.7441,262,192.7441,258,196.7441,254,192.7441" style="stroke:#B38D22;stroke-width:1.0;"/><text fill="#000000" font-family="sans-serif" font-size="14" lengthAdjust="spacing" textLength="38" x="267" y="197.5352">game</text><polygon fill="none" points="258,205.2324,262,209.2324,258,213.2324,254,209.2324" style="stroke:#B38D22;stroke-width:1.0;"/><text fill="#000000" font-family="sans-serif" font-size="14" lengthAdjust="spacing" textLength="73" x="267" y="214.0234">boardView</text><line style="stroke:#181818;stroke-width:0.5;" x1="248" x2="350" y1="220.9766" y2="220.9766"/><text fill="#000000" font-family="sans-serif" font-size="14" lengthAdjust="spacing" textLength="92" x="253" y="238.5117">writeWinner()</text><text fill="#000000" font-family="sans-serif" font-size="14" lengthAdjust="spacing" textLength="71" x="253" y="255">playTurn()</text><text fill="#000000" font-family="sans-serif" font-size="14" lengthAdjust="spacing" textLength="38" x="253" y="271.4883">play()</text></g><!--MD5=[d93cf99d2b92276f27fe8dbf15140505]
class YesNoDialog--><g id="elem_YesNoDialog"><rect codeLine="79" fill="#F1F1F1" height="130.4414" id="YesNoDialog" rx="2.5" ry="2.5" style="stroke:#181818;stroke-width:0.5;" width="119" x="386.5" y="148"/><ellipse cx="401.5" cy="164" fill="#ADD1B2" rx="11" ry="11" style="stroke:#181818;stroke-width:1.0;"/><path d="M403.9731,170.1431 Q403.3921,170.4419 402.7529,170.5913 Q402.1138,170.7407 401.4082,170.7407 Q398.9014,170.7407 397.5815,169.0889 Q396.2617,167.437 396.2617,164.3159 Q396.2617,161.1865 397.5815,159.5347 Q398.9014,157.8828 401.4082,157.8828 Q402.1138,157.8828 402.7612,158.0322 Q403.4087,158.1816 403.9731,158.4805 L403.9731,161.2031 Q403.3423,160.6221 402.7488,160.3523 Q402.1553,160.0825 401.5244,160.0825 Q400.1797,160.0825 399.4949,161.1492 Q398.8101,162.2158 398.8101,164.3159 Q398.8101,166.4077 399.4949,167.4744 Q400.1797,168.541 401.5244,168.541 Q402.1553,168.541 402.7488,168.2712 Q403.3423,168.0015 403.9731,167.4204 Z " fill="#000000"/><text fill="#000000" font-family="sans-serif" font-size="14" lengthAdjust="spacing" textLength="87" x="415.5" y="169.291">YesNoDialog</text><line style="stroke:#181818;stroke-width:0.5;" x1="387.5" x2="504.5" y1="180" y2="180"/><polygon fill="none" points="397.5,188.7441,401.5,192.7441,397.5,196.7441,393.5,192.7441" style="stroke:#B38D22;stroke-width:1.0;"/><text fill="#000000" font-family="sans-serif" font-size="14" lengthAdjust="spacing" textLength="60" x="406.5" y="197.5352">question</text><polygon fill="none" points="397.5,205.2324,401.5,209.2324,397.5,213.2324,393.5,209.2324" style="stroke:#B38D22;stroke-width:1.0;"/><text fill="#000000" font-family="sans-serif" font-size="14" lengthAdjust="spacing" textLength="49" x="406.5" y="214.0234">answer</text><line style="stroke:#181818;stroke-width:0.5;" x1="387.5" x2="504.5" y1="220.9766" y2="220.9766"/><text fill="#000000" font-family="sans-serif" font-size="14" lengthAdjust="spacing" textLength="41" x="392.5" y="238.5117">read()</text><text fill="#000000" font-family="sans-serif" font-size="14" lengthAdjust="spacing" textLength="96" x="392.5" y="255">isAffirmative()</text><text fill="#000000" font-family="sans-serif" font-size="14" lengthAdjust="spacing" textLength="80" x="392.5" y="271.4883">isNegative()</text></g><!--MD5=[10b1f240992e2c34b6908209bf85bfd2]
class Connect4--><g id="elem_Connect4"><rect codeLine="88" fill="#F1F1F1" height="80.9766" id="Connect4" rx="2.5" ry="2.5" style="stroke:#181818;stroke-width:0.5;" width="130" x="307" y="7"/><ellipse cx="336.4" cy="23" fill="#ADD1B2" rx="11" ry="11" style="stroke:#181818;stroke-width:1.0;"/><path d="M338.8731,29.1431 Q338.2921,29.4419 337.6529,29.5913 Q337.0138,29.7407 336.3082,29.7407 Q333.8014,29.7407 332.4815,28.0889 Q331.1617,26.437 331.1617,23.3159 Q331.1617,20.1865 332.4815,18.5347 Q333.8014,16.8828 336.3082,16.8828 Q337.0138,16.8828 337.6612,17.0322 Q338.3087,17.1816 338.8731,17.4805 L338.8731,20.2031 Q338.2423,19.6221 337.6488,19.3523 Q337.0553,19.0825 336.4244,19.0825 Q335.0797,19.0825 334.3949,20.1492 Q333.7101,21.2158 333.7101,23.3159 Q333.7101,25.4077 334.3949,26.4744 Q335.0797,27.541 336.4244,27.541 Q337.0553,27.541 337.6488,27.2712 Q338.2423,27.0015 338.8731,26.4204 Z " fill="#000000"/><text fill="#000000" font-family="sans-serif" font-size="14" lengthAdjust="spacing" textLength="66" x="353.6" y="28.291">Connect4</text><line style="stroke:#181818;stroke-width:0.5;" x1="308" x2="436" y1="39" y2="39"/><polygon fill="none" points="318,47.7441,322,51.7441,318,55.7441,314,51.7441" style="stroke:#B38D22;stroke-width:1.0;"/><text fill="#000000" font-family="sans-serif" font-size="14" lengthAdjust="spacing" textLength="104" x="327" y="56.5352">continueDialog</text><line style="stroke:#181818;stroke-width:0.5;" x1="308" x2="436" y1="63.4883" y2="63.4883"/><text fill="#000000" font-family="sans-serif" font-size="14" lengthAdjust="spacing" textLength="38" x="313" y="81.0234">play()</text></g><!--MD5=[481fe43362266db7627988765cb828fb]
link Coordinate to Coordinate--><g id="link_Coordinate_Coordinate"><path codeLine="93" d="M769.59,1256.77 C789.99,1260.34 804.5,1270.75 804.5,1288 C804.5,1303.76 792.37,1313.82 774.71,1318.15 " fill="none" id="Coordinate-to-Coordinate" style="stroke:#181818;stroke-width:1.0;"/><polygon fill="#181818" points="769.59,1319.23,779.2198,1321.2958,774.4834,1318.2028,777.5763,1313.4664,769.59,1319.23" style="stroke:#181818;stroke-width:1.0;"/></g><!--MD5=[118aad95fcf670bfe04c06c9ba75fb27]
link CoordinateView to Coordinate--><g id="link_CoordinateView_Coordinate"><path codeLine="95" d="M350.05,716.11 C349.89,806.06 360.91,1028.92 466,1171 C489.3,1202.5 523.91,1226.85 557.82,1244.91 " fill="none" id="CoordinateView-to-Coordinate" style="stroke:#181818;stroke-width:1.0;"/><polygon fill="#181818" points="562.38,1247.31,556.2756,1239.581,557.9545,1244.983,552.5525,1246.6619,562.38,1247.31" style="stroke:#181818;stroke-width:1.0;"/></g><!--MD5=[b2f5c1c6a25b27b22443bb927c66a9dd]
link Direction to Coordinate--><g id="link_Direction_Coordinate"><path codeLine="97" d="M707.7,1171.32 C701.4,1188.78 694.44,1208.11 688.03,1225.88 " fill="none" id="Direction-to-Coordinate" style="stroke:#181818;stroke-width:1.0;"/><polygon fill="#181818" points="686.24,1230.85,693.0627,1223.7472,687.9407,1226.1481,685.5397,1221.0261,686.24,1230.85" style="stroke:#181818;stroke-width:1.0;"/></g><!--MD5=[4c5837609a544b121f71963dcf303a6f]
link Line to Line--><g id="link_Line_Line"><path codeLine="99" d="M743.01,888.09 C762.84,889.8 778,901.61 778,923.5 C778,943.51 765.34,955.09 748.01,958.24 " fill="none" id="Line-to-Line" style="stroke:#181818;stroke-width:1.0;"/><polygon fill="#181818" points="743.01,958.91,752.4576,961.6926,747.9666,958.2529,751.4063,953.762,743.01,958.91" style="stroke:#181818;stroke-width:1.0;"/></g><!--MD5=[06b20a8bd018dce706a2e46f1bf05cac]
link Line to Coordinate--><g id="link_Line_Coordinate"><path codeLine="100" d="M651.47,997.25 C647.14,1016.53 643.19,1037.43 641,1057 C635.37,1107.35 635.63,1120.62 641,1171 C642.92,1188.98 646.45,1208.26 650.28,1225.84 " fill="none" id="Line-to-Coordinate" style="stroke:#181818;stroke-width:1.0;"/><polygon fill="#181818" points="651.37,1230.75,653.3493,1221.1021,650.299,1225.8661,645.535,1222.8157,651.37,1230.75" style="stroke:#181818;stroke-width:1.0;"/></g><!--MD5=[85fe840f0c7b74fb74a60eb3fb0823b9]
link Line to Direction--><g id="link_Line_Direction"><path codeLine="101" d="M692.96,997.11 C698.43,1015.22 704.25,1034.45 709.53,1051.94 " fill="none" id="Line-to-Direction" style="stroke:#181818;stroke-width:1.0;"/><polygon fill="#181818" points="711.01,1056.82,712.2418,1047.0485,709.5667,1052.0328,704.5823,1049.3577,711.01,1056.82" style="stroke:#181818;stroke-width:1.0;"/></g><!--MD5=[a416983a2bb8ca1c26830059e75eb56a]
link Board to Coordinate--><g id="link_Board_Coordinate"><path codeLine="103" d="M599.7987,801.0217 C599.7987,801.0217 586.19,833.9 582,850 C548.41,978.93 598.19,1132.46 634.27,1218.94 " fill="none" id="Board-Coordinate" style="stroke:#181818;stroke-width:1.0;"/><polygon fill="#181818" points="639.37,1230.95,639.5383,1221.1026,637.4177,1226.3469,632.1733,1224.2263,639.37,1230.95" style="stroke:#181818;stroke-width:1.0;"/><line style="stroke:#181818;stroke-width:1.0;" x1="637.4177" x2="634.285" y1="1226.3469" y2="1218.985"/><polygon fill="#181818" points="604.9,790.16,598.7288,793.8904,599.7987,801.0217,605.9699,797.2913,604.9,790.16" style="stroke:#181818;stroke-width:1.0;"/></g><!--MD5=[a676224b545de2f8b00c905b7798379b]
link Board to Direction--><g id="link_Board_Direction"><path codeLine="104" d="M760.8229,801.2486 C760.8229,801.2486 774.7,833.94 779,850 C795.89,913.11 792.43,933.06 779,997 C775.64,1012.97 769.95,1029.42 763.56,1044.74 " fill="none" id="Board-Direction" style="stroke:#181818;stroke-width:1.0;"/><polygon fill="#181818" points="758.31,1056.75,765.5828,1050.1088,760.3147,1052.1695,758.254,1046.9013,758.31,1056.75" style="stroke:#181818;stroke-width:1.0;"/><line style="stroke:#181818;stroke-width:1.0;" x1="760.3147" x2="763.52" y1="1052.1695" y2="1044.835"/><polygon fill="#181818" points="755.61,790.44,754.6136,797.5819,760.8229,801.2486,761.8193,794.1066,755.61,790.44" style="stroke:#181818;stroke-width:1.0;"/></g><!--MD5=[b9785f00868f157a285d240acc2e66d5]
link Board to Line--><g id="link_Board_Line"><path codeLine="105" d="M674.9046,802.1335 C674.9046,802.1335 674.15,825.74 673.8,836.44 " fill="none" id="Board-Line" style="stroke:#181818;stroke-width:1.0;"/><polygon fill="#181818" points="673.37,849.75,677.6546,840.882,673.5293,844.7525,669.6587,840.6272,673.37,849.75" style="stroke:#181818;stroke-width:1.0;"/><line style="stroke:#181818;stroke-width:1.0;" x1="673.5293" x2="673.79" y1="844.7525" y2="836.755"/><polygon fill="#181818" points="675.3,790.14,671.1045,796.0049,674.9046,802.1335,679.1001,796.2685,675.3,790.14" style="stroke:#181818;stroke-width:1.0;"/></g><!--MD5=[ead9f8c8297c76ac448723291e5f2871]
link BoardView to CoordinateView--><g id="link_BoardView_CoordinateView"><path codeLine="107" d="M351,480.28 C351,480.28 351,580.84 351,621.66 " fill="none" id="BoardView-CoordinateView" style="stroke:#181818;stroke-width:1.0;"/><polygon fill="#181818" points="351,634.86,355,625.86,351,629.86,347,625.86,351,634.86" style="stroke:#181818;stroke-width:1.0;"/><line style="stroke:#181818;stroke-width:1.0;" x1="351" x2="351" y1="629.86" y2="621.86"/><polygon fill="#181818" points="351,468.28,347,474.28,351,480.28,355,474.28,351,468.28" style="stroke:#181818;stroke-width:1.0;"/></g><!--MD5=[87ac28f7ff846e55e34c2c863c6ff220]
link BoardView to Board--><g id="link_BoardView_Board"><path codeLine="108" d="M412.69,468.28 C453.67,500 508.83,542.72 558.32,581.04 " fill="none" id="BoardView-to-Board" style="stroke:#181818;stroke-width:1.0;"/><polygon fill="#181818" points="562.48,584.26,557.8033,575.5923,558.5233,581.2032,552.9124,581.9231,562.48,584.26" style="stroke:#181818;stroke-width:1.0;"/></g><!--MD5=[3691da1176459d67ce486a3614a47073]
link BoardView to Coordinate--><g id="link_BoardView_Coordinate"><path codeLine="109" d="M393.1793,477.9656 C393.1793,477.9656 427.27,532.49 439,561 C544.7,817.97 457.55,919.65 576,1171 C584.08,1188.14 595.05,1205.11 606.56,1220.56 " fill="none" id="BoardView-Coordinate" style="stroke:#181818;stroke-width:1.0;"/><polygon fill="#181818" points="614.59,1231,612.2699,1221.4283,611.5401,1227.0379,605.9305,1226.3081,614.59,1231" style="stroke:#181818;stroke-width:1.0;"/><line style="stroke:#181818;stroke-width:1.0;" x1="611.5401" x2="606.665" y1="1227.0379" y2="1220.695"/><polygon fill="#181818" points="386.45,468.03,386.5028,475.2409,393.1793,477.9656,393.1265,470.7547,386.45,468.03" style="stroke:#181818;stroke-width:1.0;"/></g><!--MD5=[15c8f9ca3aac13d865864b4eb5314ef1]
link Game to Board--><g id="link_Game_Board"><path codeLine="111" d="M660.5785,513.1429 C660.5785,513.1429 663.22,536.3 664.5,547.48 " fill="none" id="Game-Board" style="stroke:#181818;stroke-width:1.0;"/><polygon fill="#181818" points="665.99,560.59,668.9454,551.195,665.424,555.6221,660.9969,552.1007,665.99,560.59" style="stroke:#181818;stroke-width:1.0;"/><line style="stroke:#181818;stroke-width:1.0;" x1="665.424" x2="664.52" y1="555.6221" y2="547.675"/><polygon fill="#181818" points="659.22,501.22,655.9249,507.6343,660.5785,513.1429,663.8735,506.7286,659.22,501.22" style="stroke:#181818;stroke-width:1.0;"/></g><!--MD5=[ca04c0eda4482e2f74e8c9b82fcb79bf]
link GameView to Game--><g id="link_GameView_Game"><path codeLine="113" d="M361.4109,281.475 C361.4109,281.475 366.79,284.49 369,285.5 C399.98,299.67 490.82,281.27 522,295 C543.03,304.26 562.64,318.57 579.89,334.21 " fill="none" id="GameView-Game" style="stroke:#181818;stroke-width:1.0;"/><polygon fill="#181818" points="589.77,343.54,585.9718,334.453,586.1343,340.1075,580.4798,340.2701,589.77,343.54" style="stroke:#181818;stroke-width:1.0;"/><line style="stroke:#181818;stroke-width:1.0;" x1="586.1343" x2="580.315" y1="340.1075" y2="334.61"/><polygon fill="#181818" points="351.34,274.95,354.2005,281.5695,361.4109,281.475,358.5505,274.8555,351.34,274.95" style="stroke:#181818;stroke-width:1.0;"/></g><!--MD5=[c2d12ea21a8ed9d7b07c5ed2223bb09d]
link GameView to BoardView--><g id="link_GameView_BoardView"><path codeLine="114" d="M318.2638,289.7708 C318.2638,289.7708 330.31,337.12 335.65,358.14 " fill="none" id="GameView-BoardView" style="stroke:#181818;stroke-width:1.0;"/><polygon fill="#181818" points="338.87,370.81,340.5315,361.1023,337.6392,365.9638,332.7777,363.0715,338.87,370.81" style="stroke:#181818;stroke-width:1.0;"/><line style="stroke:#181818;stroke-width:1.0;" x1="337.6392" x2="335.67" y1="365.9638" y2="358.21"/><polygon fill="#181818" points="315.31,278.14,312.91,284.94,318.2638,289.7708,320.6638,282.9708,315.31,278.14" style="stroke:#181818;stroke-width:1.0;"/></g><!--MD5=[afac9e6e58b91157a9ddcefe5763b296]
link Connect4 to YesNoDialog--><g id="link_Connect4_YesNoDialog"><path codeLine="116" d="M389.91,88.08 C397.41,104.63 406.34,124.36 414.84,143.16 " fill="none" id="Connect4-to-YesNoDialog" style="stroke:#181818;stroke-width:1.0;"/><polygon fill="#181818" points="417,147.92,416.9429,138.0713,414.9428,143.3628,409.6513,141.3628,417,147.92" style="stroke:#181818;stroke-width:1.0;"/></g><!--MD5=[a91b94de6208628ae3e5edb2825872d9]
link Connect4 to GameView--><g id="link_Connect4_GameView"><path codeLine="117" d="M349.438,99.0376 C349.438,99.0376 338.34,123.9 332.95,135.95 " fill="none" id="Connect4-GameView" style="stroke:#181818;stroke-width:1.0;"/><polygon fill="#181818" points="327.61,147.92,334.9315,141.3325,329.6483,143.3543,327.6265,138.0712,327.61,147.92" style="stroke:#181818;stroke-width:1.0;"/><line style="stroke:#181818;stroke-width:1.0;" x1="329.6483" x2="332.915" y1="143.3543" y2="136.045"/><polygon fill="#181818" points="354.33,88.08,348.2315,91.9281,349.438,99.0376,355.5365,95.1895,354.33,88.08" style="stroke:#181818;stroke-width:1.0;"/></g><!--MD5=[3e4efb013cc9628951dbe5fb3b1cbc43]
reverse link console to YesNoDialog--><g id="link_console_YesNoDialog"><path codeLine="119" d="M149.01,160.52 C174.38,133.98 209.34,105.51 248.5,96.5 C293.11,86.24 306.89,86.24 351.5,96.5 C359.93,98.44 362.4,99.42 369,105 C383.33,117.12 396.34,132.46 407.42,147.76 " fill="none" id="console-backto-YesNoDialog" style="stroke:#181818;stroke-width:1.0;stroke-dasharray:7.0,7.0;"/><polygon fill="#181818" points="145.33,164.42,154.4185,160.6255,148.764,160.7857,148.6037,155.1311,145.33,164.42" style="stroke:#181818;stroke-width:1.0;"/></g><!--MD5=[9ccb5d612f8a67e2e271bfb6f6714dec]
reverse link console to GameView--><g id="link_console_GameView"><path codeLine="120" d="M196.58,213 C213.34,213 230.11,213 246.87,213 " fill="none" id="console-backto-GameView" style="stroke:#181818;stroke-width:1.0;stroke-dasharray:7.0,7.0;"/><polygon fill="#181818" points="191.38,213,200.3914,216.9743,196.38,212.9857,200.3685,208.9743,191.38,213" style="stroke:#181818;stroke-width:1.0;"/></g><!--MD5=[dc9172569295f2f4228529b2a22a7a19]
reverse link console to BoardView--><g id="link_console_BoardView"><path codeLine="121" d="M168.07,265.19 C206.67,297.54 256.22,339.06 294.01,370.74 " fill="none" id="console-backto-BoardView" style="stroke:#181818;stroke-width:1.0;stroke-dasharray:7.0,7.0;"/><polygon fill="#181818" points="163.9,261.69,168.2209,270.5404,167.7294,264.905,173.3648,264.4134,163.9,261.69" style="stroke:#181818;stroke-width:1.0;"/></g><!--MD5=[3cba96056fa47ea9b99358a219ebb433]
reverse link console to CoordinateView--><g id="link_console_CoordinateView"><path codeLine="122" d="M134.64,266.17 C183.93,359.19 285.94,551.71 329.99,634.85 " fill="none" id="console-backto-CoordinateView" style="stroke:#181818;stroke-width:1.0;stroke-dasharray:7.0,7.0;"/><polygon fill="#181818" points="132.19,261.55,132.8512,271.3766,134.5229,265.9724,139.9271,267.6441,132.19,261.55" style="stroke:#181818;stroke-width:1.0;"/></g><!--MD5=[a524485c9f5c764c8c289bb84da514ef]
@startuml connect4_constructorFunction_classdiagram

package "console-mpds" <<Rectangle>> #ccc {
    class console {
        writeln(text)
        readString(question)
        readNumber(question)
    }
}

package "Model" <<Rectangle>> #aca {
    class Coordinate {
        row
        column
        shifted(directionCoordinate)
        toString()
    }

    class Direction {
        name
        coordinate
        opositeCoordinate
        toString()
    }

    class Line {
        LENGTH
        direction
        coordinates
        toString()
        oppositeDirection()
        getVariations()
    }

    class Board {
        TOKEN_EMPTY
        MAX_COLUMNS
        MAX_ROWS
        tokens
        lastCoordinate
        getToken(coordinate)
        isLastCoordinateColumnEmpty()
        putLastCoordinate(token)
        isLastTokenInLine()
        isInLine(line)
        isValid(coordinate)
    }

    class Game {
        MAX_PLAYERS
        players
        turn
        board
        isWinner()
        nextTurn()
        getTurnToken()
    }
}

package "Views" <<Rectangle>> #caa {
    class CoordinateView {
        #coordinate
        readColumn(max)
    }

    class BoardView{
        #board
        writeTokens()
        placeToken(token)
    }

    class GameView {
        #game
        #boardView
        writeWinner()
        playTurn()
        play()
    }

    class YesNoDialog {
        #question
        #answer
        read()
        isAffirmative()
        isNegative()
    }
}

class Connect4 {
    #continueDialog
    play()
}

Coordinate -> Coordinate

CoordinateView -> Coordinate

Direction -down-> Coordinate

Line -> Line
Line -down-> Coordinate
Line -down-> Direction

Board *-down-> Coordinate
Board *-down-> Direction
Board *-down-> Line

BoardView *-down-> CoordinateView
BoardView -down-> Board
BoardView *-down-> Coordinate

Game *-down-> Board

GameView *-down-> Game
GameView *-down-> BoardView

Connect4 -down-> YesNoDialog
Connect4 *-down-> GameView

YesNoDialog .-l-> console
GameView .-l-> console
BoardView .-l-> console
CoordinateView .-l-> console

@enduml

PlantUML version 1.2022.7(Mon Aug 22 13:01:30 VET 2022)
(GPL source distribution)
Java Runtime: OpenJDK Runtime Environment
JVM: OpenJDK 64-Bit Server VM
Default Encoding: UTF-8
Language: es
Country: VE
--></g></svg>